solid csg.js
facet normal 0 0 -1
outer loop
vertex 0.1950903220161283 0.9807852804032303 0
vertex 0.38268343236509 0.9238795325112865 0
vertex 0.5555702330196018 0.8314696123025452 0
endloop
endfacet
facet normal 0 0 -1
outer loop
vertex 0.1950903220161283 0.9807852804032303 0
vertex 0.5555702330196018 0.8314696123025452 0
vertex 0.7071067811865474 0.7071067811865475 0
endloop
endfacet
facet normal 0 0 -1
outer loop
vertex 0.1950903220161283 0.9807852804032303 0
vertex 0.7071067811865474 0.7071067811865475 0
vertex 0.8314696123025452 0.5555702330196015 0
endloop
endfacet
facet normal 0 0 -1
outer loop
vertex 0.1950903220161283 0.9807852804032303 0
vertex 0.8314696123025452 0.5555702330196015 0
vertex 0.9238795325112865 0.3826834323650892 0
endloop
endfacet
facet normal 0 0 -1
outer loop
vertex 0.1950903220161283 0.9807852804032303 0
vertex 0.9238795325112865 0.3826834323650892 0
vertex 0.9807852804032303 0.1950903220161288 0
endloop
endfacet
facet normal 0 0 -1
outer loop
vertex 0.1950903220161283 0.9807852804032303 0
vertex 0.9807852804032303 0.1950903220161288 0
vertex 1 0 0
endloop
endfacet
facet normal 0 0 -1
outer loop
vertex 0.1950903220161283 0.9807852804032303 0
vertex 1 0 0
vertex 0.9807852804032304 -0.19509032201612825 0
endloop
endfacet
facet normal 0 0 -1
outer loop
vertex 0.1950903220161283 0.9807852804032303 0
vertex 0.9807852804032304 -0.19509032201612825 0
vertex 0.9238795325112867 -0.3826834323650898 0
endloop
endfacet
facet normal 0 0 -1
outer loop
vertex 0.1950903220161283 0.9807852804032303 0
vertex 0.9238795325112867 -0.3826834323650898 0
vertex 0.8314696123025452 -0.5555702330196022 0
endloop
endfacet
facet normal 0 0 -1
outer loop
vertex 0.1950903220161283 0.9807852804032303 0
vertex 0.8314696123025452 -0.5555702330196022 0
vertex 0.7071067811865476 -0.7071067811865475 0
endloop
endfacet
facet normal 0 0 -1
outer loop
vertex 0.1950903220161283 0.9807852804032303 0
vertex 0.7071067811865476 -0.7071067811865475 0
vertex 0.5555702330196023 -0.8314696123025452 0
endloop
endfacet
facet normal 0 0 -1
outer loop
vertex 0.1950903220161283 0.9807852804032303 0
vertex 0.5555702330196023 -0.8314696123025452 0
vertex 0.38268343236508984 -0.9238795325112867 0
endloop
endfacet
facet normal 0 0 -1
outer loop
vertex 0.1950903220161283 0.9807852804032303 0
vertex 0.38268343236508984 -0.9238795325112867 0
vertex 0.19509032201612833 -0.9807852804032304 0
endloop
endfacet
facet normal 0 0 -1
outer loop
vertex 0.1950903220161283 0.9807852804032303 0
vertex 0.19509032201612833 -0.9807852804032304 0
vertex 5.551115123125783e-17 -1 0
endloop
endfacet
facet normal 0 0 -1
outer loop
vertex 0.1950903220161283 0.9807852804032303 0
vertex 5.551115123125783e-17 -1 0
vertex -0.19509032201612797 -0.9807852804032304 0
endloop
endfacet
facet normal 0 0 -1
outer loop
vertex 0.1950903220161283 0.9807852804032303 0
vertex -0.19509032201612797 -0.9807852804032304 0
vertex -0.3826834323650897 -0.9238795325112867 0
endloop
endfacet
facet normal 0 0 -1
outer loop
vertex 0.1950903220161283 0.9807852804032303 0
vertex -0.3826834323650897 -0.9238795325112867 0
vertex -0.555570233019602 -0.8314696123025452 0
endloop
endfacet
facet normal 0 0 -1
outer loop
vertex 0.1950903220161283 0.9807852804032303 0
vertex -0.555570233019602 -0.8314696123025452 0
vertex -0.7071067811865475 -0.7071067811865475 0
endloop
endfacet
facet normal 0 0 -1
outer loop
vertex 0.1950903220161283 0.9807852804032303 0
vertex -0.7071067811865475 -0.7071067811865475 0
vertex -0.8314696123025453 -0.5555702330196022 0
endloop
endfacet
facet normal 0 0 -1
outer loop
vertex 0.1950903220161283 0.9807852804032303 0
vertex -0.8314696123025453 -0.5555702330196022 0
vertex -0.9238795325112867 -0.3826834323650898 0
endloop
endfacet
facet normal 0 0 -1
outer loop
vertex 0.1950903220161283 0.9807852804032303 0
vertex -0.9238795325112867 -0.3826834323650898 0
vertex -0.9807852804032304 -0.19509032201612825 0
endloop
endfacet
facet normal 0 0 -1
outer loop
vertex 0.1950903220161283 0.9807852804032303 0
vertex -0.9807852804032304 -0.19509032201612825 0
vertex -1 0 0
endloop
endfacet
facet normal 0 0 -1
outer loop
vertex 0.1950903220161283 0.9807852804032303 0
vertex -1 0 0
vertex -0.9807852804032303 0.1950903220161288 0
endloop
endfacet
facet normal 0 0 -1
outer loop
vertex 0.1950903220161283 0.9807852804032303 0
vertex -0.9807852804032303 0.1950903220161288 0
vertex -0.923879532511287 0.3826834323650892 0
endloop
endfacet
facet normal 0 0 -1
outer loop
vertex 0.1950903220161283 0.9807852804032303 0
vertex -0.923879532511287 0.3826834323650892 0
vertex -0.8314696123025457 0.5555702330196015 0
endloop
endfacet
facet normal 0 0 -1
outer loop
vertex 0.1950903220161283 0.9807852804032303 0
vertex -0.8314696123025457 0.5555702330196015 0
vertex -0.7071067811865477 0.7071067811865475 0
endloop
endfacet
facet normal 0 0 -1
outer loop
vertex 0.1950903220161283 0.9807852804032303 0
vertex -0.7071067811865477 0.7071067811865475 0
vertex -0.5555702330196022 0.8314696123025452 0
endloop
endfacet
facet normal 0 0 -1
outer loop
vertex 0.1950903220161283 0.9807852804032303 0
vertex -0.5555702330196022 0.8314696123025452 0
vertex -0.38268343236509034 0.9238795325112865 0
endloop
endfacet
facet normal 0 0 -1
outer loop
vertex 0.1950903220161283 0.9807852804032303 0
vertex -0.38268343236509034 0.9238795325112865 0
vertex -0.19509032201612866 0.9807852804032303 0
endloop
endfacet
facet normal 0 0 -1
outer loop
vertex 0.1950903220161283 0.9807852804032303 0
vertex -0.19509032201612866 0.9807852804032303 0
vertex -1.8369701987210297e-16 1 0
endloop
endfacet
facet normal 0.9951847266721969 -0.09801714032956071 0
outer loop
vertex 0.9807852804032304 -0.19509032201612825 0
vertex 1 0 0
vertex 1 0 1
endloop
endfacet
facet normal 0.9951847266721969 -0.09801714032956071 0
outer loop
vertex 0.9807852804032304 -0.19509032201612825 0
vertex 1 0 1
vertex 0.9807852804032304 -0.19509032201612825 1
endloop
endfacet
facet normal 0 0 1
outer loop
vertex 0.19509032201612833 -0.9807852804032304 1
vertex 0.38268343236508984 -0.9238795325112867 1
vertex 0.5555702330196023 -0.8314696123025452 1
endloop
endfacet
facet normal 0 0 1
outer loop
vertex 0.19509032201612833 -0.9807852804032304 1
vertex 0.5555702330196023 -0.8314696123025452 1
vertex 0.7071067811865476 -0.7071067811865475 1
endloop
endfacet
facet normal 0 0 1
outer loop
vertex 0.19509032201612833 -0.9807852804032304 1
vertex 0.7071067811865476 -0.7071067811865475 1
vertex 0.8314696123025452 -0.5555702330196022 1
endloop
endfacet
facet normal 0 0 1
outer loop
vertex 0.19509032201612833 -0.9807852804032304 1
vertex 0.8314696123025452 -0.5555702330196022 1
vertex 0.9238795325112867 -0.3826834323650898 1
endloop
endfacet
facet normal 0 0 1
outer loop
vertex 0.19509032201612833 -0.9807852804032304 1
vertex 0.9238795325112867 -0.3826834323650898 1
vertex 0.9807852804032304 -0.19509032201612825 1
endloop
endfacet
facet normal 0 0 1
outer loop
vertex 0.19509032201612833 -0.9807852804032304 1
vertex 0.9807852804032304 -0.19509032201612825 1
vertex 1 0 1
endloop
endfacet
facet normal 0 0 1
outer loop
vertex 0.19509032201612833 -0.9807852804032304 1
vertex 1 0 1
vertex 0.9807852804032303 0.1950903220161288 1
endloop
endfacet
facet normal 0 0 1
outer loop
vertex 0.19509032201612833 -0.9807852804032304 1
vertex 0.9807852804032303 0.1950903220161288 1
vertex 0.9238795325112865 0.3826834323650892 1
endloop
endfacet
facet normal 0 0 1
outer loop
vertex 0.19509032201612833 -0.9807852804032304 1
vertex 0.9238795325112865 0.3826834323650892 1
vertex 0.8314696123025452 0.5555702330196015 1
endloop
endfacet
facet normal 0 0 1
outer loop
vertex 0.19509032201612833 -0.9807852804032304 1
vertex 0.8314696123025452 0.5555702330196015 1
vertex 0.7071067811865474 0.7071067811865475 1
endloop
endfacet
facet normal 0 0 1
outer loop
vertex 0.19509032201612833 -0.9807852804032304 1
vertex 0.7071067811865474 0.7071067811865475 1
vertex 0.5555702330196018 0.8314696123025452 1
endloop
endfacet
facet normal 0 0 1
outer loop
vertex 0.19509032201612833 -0.9807852804032304 1
vertex 0.5555702330196018 0.8314696123025452 1
vertex 0.38268343236509 0.9238795325112865 1
endloop
endfacet
facet normal 0 0 1
outer loop
vertex 0.19509032201612833 -0.9807852804032304 1
vertex 0.38268343236509 0.9238795325112865 1
vertex 0.1950903220161283 0.9807852804032303 1
endloop
endfacet
facet normal 0 0 1
outer loop
vertex 0.19509032201612833 -0.9807852804032304 1
vertex 0.1950903220161283 0.9807852804032303 1
vertex -1.942890293094024e-16 1 1
endloop
endfacet
facet normal 0 0 1
outer loop
vertex 0.19509032201612833 -0.9807852804032304 1
vertex -1.942890293094024e-16 1 1
vertex -0.19509032201612866 0.9807852804032303 1
endloop
endfacet
facet normal 0 0 1
outer loop
vertex 0.19509032201612833 -0.9807852804032304 1
vertex -0.19509032201612866 0.9807852804032303 1
vertex -0.38268343236509034 0.9238795325112865 1
endloop
endfacet
facet normal 0 0 1
outer loop
vertex 0.19509032201612833 -0.9807852804032304 1
vertex -0.38268343236509034 0.9238795325112865 1
vertex -0.5555702330196022 0.8314696123025452 1
endloop
endfacet
facet normal 0 0 1
outer loop
vertex 0.19509032201612833 -0.9807852804032304 1
vertex -0.5555702330196022 0.8314696123025452 1
vertex -0.7071067811865477 0.7071067811865475 1
endloop
endfacet
facet normal 0 0 1
outer loop
vertex 0.19509032201612833 -0.9807852804032304 1
vertex -0.7071067811865477 0.7071067811865475 1
vertex -0.8314696123025457 0.5555702330196015 1
endloop
endfacet
facet normal 0 0 1
outer loop
vertex 0.19509032201612833 -0.9807852804032304 1
vertex -0.8314696123025457 0.5555702330196015 1
vertex -0.923879532511287 0.3826834323650892 1
endloop
endfacet
facet normal 0 0 1
outer loop
vertex 0.19509032201612833 -0.9807852804032304 1
vertex -0.923879532511287 0.3826834323650892 1
vertex -0.9807852804032303 0.1950903220161288 1
endloop
endfacet
facet normal 0 0 1
outer loop
vertex 0.19509032201612833 -0.9807852804032304 1
vertex -0.9807852804032303 0.1950903220161288 1
vertex -1 0 1
endloop
endfacet
facet normal 0 0 1
outer loop
vertex 0.19509032201612833 -0.9807852804032304 1
vertex -1 0 1
vertex -0.9807852804032304 -0.19509032201612825 1
endloop
endfacet
facet normal 0 0 1
outer loop
vertex 0.19509032201612833 -0.9807852804032304 1
vertex -0.9807852804032304 -0.19509032201612825 1
vertex -0.9238795325112867 -0.3826834323650898 1
endloop
endfacet
facet normal 0 0 1
outer loop
vertex 0.19509032201612833 -0.9807852804032304 1
vertex -0.9238795325112867 -0.3826834323650898 1
vertex -0.8314696123025453 -0.5555702330196022 1
endloop
endfacet
facet normal 0 0 1
outer loop
vertex 0.19509032201612833 -0.9807852804032304 1
vertex -0.8314696123025453 -0.5555702330196022 1
vertex -0.7071067811865475 -0.7071067811865475 1
endloop
endfacet
facet normal 0 0 1
outer loop
vertex 0.19509032201612833 -0.9807852804032304 1
vertex -0.7071067811865475 -0.7071067811865475 1
vertex -0.555570233019602 -0.8314696123025452 1
endloop
endfacet
facet normal 0 0 1
outer loop
vertex 0.19509032201612833 -0.9807852804032304 1
vertex -0.555570233019602 -0.8314696123025452 1
vertex -0.3826834323650897 -0.9238795325112867 1
endloop
endfacet
facet normal 0 0 1
outer loop
vertex 0.19509032201612833 -0.9807852804032304 1
vertex -0.3826834323650897 -0.9238795325112867 1
vertex -0.19509032201612797 -0.9807852804032304 1
endloop
endfacet
facet normal 0 0 1
outer loop
vertex 0.19509032201612833 -0.9807852804032304 1
vertex -0.19509032201612797 -0.9807852804032304 1
vertex 6.123233995736766e-17 -1 1
endloop
endfacet
facet normal 0.9569403357322088 -0.29028467725446233 0
outer loop
vertex 0.9238795325112867 -0.3826834323650898 0
vertex 0.9807852804032304 -0.19509032201612825 0
vertex 0.9807852804032304 -0.19509032201612825 1
endloop
endfacet
facet normal 0.9569403357322088 -0.29028467725446233 0
outer loop
vertex 0.9238795325112867 -0.3826834323650898 0
vertex 0.9807852804032304 -0.19509032201612825 1
vertex 0.9238795325112867 -0.3826834323650898 1
endloop
endfacet
facet normal 0.8819212643483549 -0.4713967368259977 0
outer loop
vertex 0.8314696123025452 -0.5555702330196022 0
vertex 0.9238795325112867 -0.3826834323650898 0
vertex 0.9238795325112867 -0.3826834323650898 1
endloop
endfacet
facet normal 0.8819212643483549 -0.4713967368259977 0
outer loop
vertex 0.8314696123025452 -0.5555702330196022 0
vertex 0.9238795325112867 -0.3826834323650898 1
vertex 0.8314696123025452 -0.5555702330196022 1
endloop
endfacet
facet normal 0.7730104533627371 -0.6343932841636454 0
outer loop
vertex 0.7071067811865476 -0.7071067811865475 0
vertex 0.8314696123025452 -0.5555702330196022 0
vertex 0.8314696123025452 -0.5555702330196022 1
endloop
endfacet
facet normal 0.7730104533627371 -0.6343932841636454 0
outer loop
vertex 0.7071067811865476 -0.7071067811865475 0
vertex 0.8314696123025452 -0.5555702330196022 1
vertex 0.7071067811865476 -0.7071067811865475 1
endloop
endfacet
facet normal 0.6343932841636457 -0.7730104533627368 0
outer loop
vertex 0.5555702330196023 -0.8314696123025452 0
vertex 0.7071067811865476 -0.7071067811865475 0
vertex 0.7071067811865476 -0.7071067811865475 1
endloop
endfacet
facet normal 0.6343932841636457 -0.7730104533627368 0
outer loop
vertex 0.5555702330196023 -0.8314696123025452 0
vertex 0.7071067811865476 -0.7071067811865475 1
vertex 0.5555702330196023 -0.8314696123025452 1
endloop
endfacet
facet normal 0.47139673682599764 -0.8819212643483552 0
outer loop
vertex 0.38268343236508984 -0.9238795325112867 0
vertex 0.5555702330196023 -0.8314696123025452 0
vertex 0.5555702330196023 -0.8314696123025452 1
endloop
endfacet
facet normal 0.47139673682599764 -0.8819212643483552 0
outer loop
vertex 0.38268343236508984 -0.9238795325112867 0
vertex 0.5555702330196023 -0.8314696123025452 1
vertex 0.38268343236508984 -0.9238795325112867 1
endloop
endfacet
facet normal 0.29028467725446233 -0.9569403357322088 0
outer loop
vertex 0.19509032201612833 -0.9807852804032304 0
vertex 0.38268343236508984 -0.9238795325112867 0
vertex 0.38268343236508984 -0.9238795325112867 1
endloop
endfacet
facet normal 0.29028467725446233 -0.9569403357322088 0
outer loop
vertex 0.19509032201612833 -0.9807852804032304 0
vertex 0.38268343236508984 -0.9238795325112867 1
vertex 0.19509032201612833 -0.9807852804032304 1
endloop
endfacet
facet normal 0.0980171403295607 -0.9951847266721969 0
outer loop
vertex 5.551115123125783e-17 -1 0
vertex 0.19509032201612833 -0.9807852804032304 0
vertex 0.19509032201612833 -0.9807852804032304 1
endloop
endfacet
facet normal 0.0980171403295607 -0.9951847266721969 0
outer loop
vertex 5.551115123125783e-17 -1 0
vertex 0.19509032201612833 -0.9807852804032304 1
vertex 6.123233995736766e-17 -1 1
endloop
endfacet
facet normal -0.09801714032956026 -0.9951847266721969 0
outer loop
vertex -0.19509032201612797 -0.9807852804032304 0
vertex 5.551115123125783e-17 -1 0
vertex 6.123233995736766e-17 -1 1
endloop
endfacet
facet normal -0.09801714032956026 -0.9951847266721969 0
outer loop
vertex -0.19509032201612797 -0.9807852804032304 0
vertex 6.123233995736766e-17 -1 1
vertex -0.19509032201612797 -0.9807852804032304 1
endloop
endfacet
facet normal -0.2902846772544625 -0.9569403357322088 0
outer loop
vertex -0.3826834323650897 -0.9238795325112867 0
vertex -0.19509032201612797 -0.9807852804032304 0
vertex -0.19509032201612797 -0.9807852804032304 1
endloop
endfacet
facet normal -0.2902846772544625 -0.9569403357322088 0
outer loop
vertex -0.3826834323650897 -0.9238795325112867 0
vertex -0.19509032201612797 -0.9807852804032304 1
vertex -0.3826834323650897 -0.9238795325112867 1
endloop
endfacet
facet normal -0.4713967368259976 -0.881921264348355 0
outer loop
vertex -0.555570233019602 -0.8314696123025452 0
vertex -0.3826834323650897 -0.9238795325112867 0
vertex -0.3826834323650897 -0.9238795325112867 1
endloop
endfacet
facet normal -0.4713967368259976 -0.881921264348355 0
outer loop
vertex -0.555570233019602 -0.8314696123025452 0
vertex -0.3826834323650897 -0.9238795325112867 1
vertex -0.555570233019602 -0.8314696123025452 1
endloop
endfacet
facet normal -0.6343932841636452 -0.7730104533627372 0
outer loop
vertex -0.7071067811865475 -0.7071067811865475 0
vertex -0.555570233019602 -0.8314696123025452 0
vertex -0.555570233019602 -0.8314696123025452 1
endloop
endfacet
facet normal -0.6343932841636452 -0.7730104533627372 0
outer loop
vertex -0.7071067811865475 -0.7071067811865475 0
vertex -0.555570233019602 -0.8314696123025452 1
vertex -0.7071067811865475 -0.7071067811865475 1
endloop
endfacet
facet normal -0.7730104533627368 -0.6343932841636458 0
outer loop
vertex -0.8314696123025453 -0.5555702330196022 0
vertex -0.7071067811865475 -0.7071067811865475 0
vertex -0.7071067811865475 -0.7071067811865475 1
endloop
endfacet
facet normal -0.7730104533627368 -0.6343932841636458 0
outer loop
vertex -0.8314696123025453 -0.5555702330196022 0
vertex -0.7071067811865475 -0.7071067811865475 1
vertex -0.8314696123025453 -0.5555702330196022 1
endloop
endfacet
facet normal -0.8819212643483552 -0.47139673682599753 0
outer loop
vertex -0.9238795325112867 -0.3826834323650898 0
vertex -0.8314696123025453 -0.5555702330196022 0
vertex -0.8314696123025453 -0.5555702330196022 1
endloop
endfacet
facet normal -0.8819212643483552 -0.47139673682599753 0
outer loop
vertex -0.9238795325112867 -0.3826834323650898 0
vertex -0.8314696123025453 -0.5555702330196022 1
vertex -0.9238795325112867 -0.3826834323650898 1
endloop
endfacet
facet normal -0.9569403357322088 -0.29028467725446266 0
outer loop
vertex -0.9807852804032304 -0.19509032201612825 0
vertex -0.9238795325112867 -0.3826834323650898 0
vertex -0.9238795325112867 -0.3826834323650898 1
endloop
endfacet
facet normal -0.9569403357322088 -0.29028467725446266 0
outer loop
vertex -0.9807852804032304 -0.19509032201612825 0
vertex -0.9238795325112867 -0.3826834323650898 1
vertex -0.9807852804032304 -0.19509032201612825 1
endloop
endfacet
facet normal -0.9951847266721969 -0.09801714032956059 0
outer loop
vertex -1 0 0
vertex -0.9807852804032304 -0.19509032201612825 0
vertex -0.9807852804032304 -0.19509032201612825 1
endloop
endfacet
facet normal -0.9951847266721969 -0.09801714032956059 0
outer loop
vertex -1 0 0
vertex -0.9807852804032304 -0.19509032201612825 1
vertex -1 0 1
endloop
endfacet
facet normal -0.9951847266721968 0.09801714032956092 0
outer loop
vertex -0.9807852804032303 0.1950903220161288 0
vertex -1 0 0
vertex -1 0 1
endloop
endfacet
facet normal -0.9951847266721968 0.09801714032956092 0
outer loop
vertex -0.9807852804032303 0.1950903220161288 0
vertex -1 0 1
vertex -0.9807852804032303 0.1950903220161288 1
endloop
endfacet
facet normal -0.9569403357322089 0.29028467725446233 0
outer loop
vertex -0.923879532511287 0.3826834323650892 0
vertex -0.9807852804032303 0.1950903220161288 0
vertex -0.9807852804032303 0.1950903220161288 1
endloop
endfacet
facet normal -0.9569403357322089 0.29028467725446233 0
outer loop
vertex -0.923879532511287 0.3826834323650892 0
vertex -0.9807852804032303 0.1950903220161288 1
vertex -0.923879532511287 0.3826834323650892 1
endloop
endfacet
facet normal -0.8819212643483553 0.47139673682599703 0
outer loop
vertex -0.8314696123025457 0.5555702330196015 0
vertex -0.923879532511287 0.3826834323650892 0
vertex -0.923879532511287 0.3826834323650892 1
endloop
endfacet
facet normal -0.8819212643483553 0.47139673682599703 0
outer loop
vertex -0.8314696123025457 0.5555702330196015 0
vertex -0.923879532511287 0.3826834323650892 1
vertex -0.8314696123025457 0.5555702330196015 1
endloop
endfacet
facet normal -0.7730104533627375 0.6343932841636447 0
outer loop
vertex -0.7071067811865477 0.7071067811865475 0
vertex -0.8314696123025457 0.5555702330196015 0
vertex -0.8314696123025457 0.5555702330196015 1
endloop
endfacet
facet normal -0.7730104533627375 0.6343932841636447 0
outer loop
vertex -0.7071067811865477 0.7071067811865475 0
vertex -0.8314696123025457 0.5555702330196015 1
vertex -0.7071067811865477 0.7071067811865475 1
endloop
endfacet
facet normal -0.6343932841636452 0.7730104533627372 0
outer loop
vertex -0.5555702330196022 0.8314696123025452 0
vertex -0.7071067811865477 0.7071067811865475 0
vertex -0.7071067811865477 0.7071067811865475 1
endloop
endfacet
facet normal -0.6343932841636452 0.7730104533627372 0
outer loop
vertex -0.5555702330196022 0.8314696123025452 0
vertex -0.7071067811865477 0.7071067811865475 1
vertex -0.5555702330196022 0.8314696123025452 1
endloop
endfacet
facet normal -0.471396736825998 0.8819212643483547 0
outer loop
vertex -0.38268343236509034 0.9238795325112865 0
vertex -0.5555702330196022 0.8314696123025452 0
vertex -0.5555702330196022 0.8314696123025452 1
endloop
endfacet
facet normal -0.471396736825998 0.8819212643483547 0
outer loop
vertex -0.38268343236509034 0.9238795325112865 0
vertex -0.5555702330196022 0.8314696123025452 1
vertex -0.38268343236509034 0.9238795325112865 1
endloop
endfacet
facet normal -0.29028467725446266 0.9569403357322087 0
outer loop
vertex -0.19509032201612866 0.9807852804032303 0
vertex -0.38268343236509034 0.9238795325112865 0
vertex -0.38268343236509034 0.9238795325112865 1
endloop
endfacet
facet normal -0.29028467725446266 0.9569403357322087 0
outer loop
vertex -0.19509032201612866 0.9807852804032303 0
vertex -0.38268343236509034 0.9238795325112865 1
vertex -0.19509032201612866 0.9807852804032303 1
endloop
endfacet
facet normal -0.09801714032956114 0.9951847266721968 0
outer loop
vertex -1.8369701987210297e-16 1 0
vertex -0.19509032201612866 0.9807852804032303 0
vertex -0.19509032201612866 0.9807852804032303 1
endloop
endfacet
facet normal -0.09801714032956114 0.9951847266721968 0
outer loop
vertex -1.8369701987210297e-16 1 0
vertex -0.19509032201612866 0.9807852804032303 1
vertex -1.942890293094024e-16 1 1
endloop
endfacet
facet normal 0.09801714032956059 0.9951847266721969 0
outer loop
vertex 0.1950903220161283 0.9807852804032303 0
vertex -1.8369701987210297e-16 1 0
vertex -1.942890293094024e-16 1 1
endloop
endfacet
facet normal 0.09801714032956059 0.9951847266721969 0
outer loop
vertex 0.1950903220161283 0.9807852804032303 0
vertex -1.942890293094024e-16 1 1
vertex 0.1950903220161283 0.9807852804032303 1
endloop
endfacet
facet normal 0.2902846772544626 0.9569403357322087 0
outer loop
vertex 0.38268343236509 0.9238795325112865 0
vertex 0.1950903220161283 0.9807852804032303 0
vertex 0.1950903220161283 0.9807852804032303 1
endloop
endfacet
facet normal 0.2902846772544626 0.9569403357322087 0
outer loop
vertex 0.38268343236509 0.9238795325112865 0
vertex 0.1950903220161283 0.9807852804032303 1
vertex 0.38268343236509 0.9238795325112865 1
endloop
endfacet
facet normal 0.47139673682599753 0.881921264348355 0
outer loop
vertex 0.5555702330196018 0.8314696123025452 0
vertex 0.38268343236509 0.9238795325112865 0
vertex 0.38268343236509 0.9238795325112865 1
endloop
endfacet
facet normal 0.47139673682599753 0.881921264348355 0
outer loop
vertex 0.5555702330196018 0.8314696123025452 0
vertex 0.38268343236509 0.9238795325112865 1
vertex 0.5555702330196018 0.8314696123025452 1
endloop
endfacet
facet normal 0.6343932841636452 0.7730104533627372 0
outer loop
vertex 0.7071067811865474 0.7071067811865475 0
vertex 0.5555702330196018 0.8314696123025452 0
vertex 0.5555702330196018 0.8314696123025452 1
endloop
endfacet
facet normal 0.6343932841636452 0.7730104533627372 0
outer loop
vertex 0.7071067811865474 0.7071067811865475 0
vertex 0.5555702330196018 0.8314696123025452 1
vertex 0.7071067811865474 0.7071067811865475 1
endloop
endfacet
facet normal 0.7730104533627369 0.6343932841636455 0
outer loop
vertex 0.8314696123025452 0.5555702330196015 0
vertex 0.7071067811865474 0.7071067811865475 0
vertex 0.7071067811865474 0.7071067811865475 1
endloop
endfacet
facet normal 0.7730104533627369 0.6343932841636455 0
outer loop
vertex 0.8314696123025452 0.5555702330196015 0
vertex 0.7071067811865474 0.7071067811865475 1
vertex 0.8314696123025452 0.5555702330196015 1
endloop
endfacet
facet normal 0.8819212643483547 0.4713967368259981 0
outer loop
vertex 0.9238795325112865 0.3826834323650892 0
vertex 0.8314696123025452 0.5555702330196015 0
vertex 0.8314696123025452 0.5555702330196015 1
endloop
endfacet
facet normal 0.8819212643483547 0.4713967368259981 0
outer loop
vertex 0.9238795325112865 0.3826834323650892 0
vertex 0.8314696123025452 0.5555702330196015 1
vertex 0.9238795325112865 0.3826834323650892 1
endloop
endfacet
facet normal 0.9569403357322087 0.29028467725446266 0
outer loop
vertex 0.9807852804032303 0.1950903220161288 0
vertex 0.9238795325112865 0.3826834323650892 0
vertex 0.9238795325112865 0.3826834323650892 1
endloop
endfacet
facet normal 0.9569403357322087 0.29028467725446266 0
outer loop
vertex 0.9807852804032303 0.1950903220161288 0
vertex 0.9238795325112865 0.3826834323650892 1
vertex 0.9807852804032303 0.1950903220161288 1
endloop
endfacet
facet normal 0.9951847266721968 0.09801714032956114 0
outer loop
vertex 1 0 0
vertex 0.9807852804032303 0.1950903220161288 0
vertex 0.9807852804032303 0.1950903220161288 1
endloop
endfacet
facet normal 0.9951847266721968 0.09801714032956114 0
outer loop
vertex 1 0 0
vertex 0.9807852804032303 0.1950903220161288 1
vertex 1 0 1
endloop
endfacet
endsolid csg.js
